# xmcd CD database file
#
# Track frame offsets:
#	150
#	13543
#	29498
#	47556
#	65092
#	82311
#	99559
#	115196
#	131705
#	149902
#	163298
#	178551
#	195819
#	214235
#	229479
#	244268
#
# Disc length: 3483 seconds
#
# Revision: 0
# Processed by: cddbd v1.5.2PL0 Copyright (c) Steve Scherf et al.
# Submitted via: CDex 1.70beta2
#
DISCID=f30d9910
DTITLE=Ayo - Ticket to the World
DYEAR=1900
DGENRE=Rhythmic Soul
TTITLE0=fire
TTITLE1=I'm Walking
TTITLE2=Teach Love
TTITLE3=Justic (feat. Citizen Cope)
TTITLE4=Fallin'
TTITLE5=Complain
TTITLE6=Who
TTITLE7=I Wonder
TTITLE8=Ticket to the World
TTITLE9=Hullabaloo
TTITLE10=Sister
TTITLE11=Wouldn't it be better
TTITLE12=I need You
TTITLE13=Milky Way
TTITLE14=Sunny
TTITLE15=Fire (feat. Youssoupha)
EXTD=
EXTT0=
EXTT1=
EXTT2=
EXTT3=
EXTT4=
EXTT5=
EXTT6=
EXTT7=
EXTT8=
EXTT9=
EXTT10=
EXTT11=
EXTT12=
EXTT13=
EXTT14=
EXTT15=
PLAYORDER=
